:SAMPLES-PER-SECOND 30
:FULLY-SPECIFIED
:DEGREES
515
root  -5.25708 40.8909 0.390897 155.199 -88.2906 -155.631
RightUpLeg  9.5353 -2.74333 -2.57755
RightLeg  -5.06101 -18.1565 1.93854
RightFoot  -0.30447 -0.472713 4.86753
RightToes  -3.10096e-008 1.75238e-005 3.56266e-009
Spine  -10.0888 0.956354 -2.29829
Spine1  15.6225 0.794912 1.39895
HEad  -20.6368 3.26522 -5.95019
LeftShoulder1  2.22023 -3.86558 -23.8807
LeftArm  -21.7955 16.2117 -44.4693
LeftForeArm  24.8251 -45.3104 -10.3876
LeftHand  -0.628471 -4.15402 7.95438
RightShoulder  2.8088 5.68838 24.4664
RightArm  -4.46608 -8.29037 42.5716
RightForeArm  -8.63504 48.2216 12.6082
RightHand  -0.781879 6.58245 -7.8921
LeftUpLeg  8.03132 1.40641 1.88146
LeftLeg  -3.90647 13.8988 -0.927786
LeftFoot  -1.98775 0.099146 -1.27464
LeftToes  4.7633e-008 1.48299e-008 1.30754e-009
516
root  -5.17652 40.8795 0.33627 150.771 -88.9249 -151.13
RightUpLeg  9.49197 -2.83521 -2.68521
RightLeg  -5.21201 -18.6857 2.06563
RightFoot  -0.513658 -0.446279 4.66766
RightToes  -3.10096e-008 1.75238e-005 3.56266e-009
Spine  -9.54635 1.43603 -1.24673
Spine1  14.7023 1.68758 -0.22936
HEad  -18.0424 2.52006 -6.07187
LeftShoulder1  3.12217 -5.73521 -27.5624
LeftArm  -26.9408 6.60623 -40.1867
LeftForeArm  43.7522 -10.7254 -1.94625
LeftHand  -0.731584 -3.99904 9.30723
RightShoulder  3.38969 7.00287 26.157
RightArm  -3.72499 -4.89984 43.4636
RightForeArm  1.40317 22.9416 6.44438
RightHand  -0.657499 6.42928 -6.78985
LeftUpLeg  7.70334 1.43207 1.84045
LeftLeg  -3.79942 13.2491 -1.0165
LeftFoot  -1.89808 0.0938252 -1.18858
LeftToes  4.7633e-008 1.48299e-008 1.30754e-009
517
root  -5.14218 40.8644 0.278091 155.169 -89.6398 -155.56
RightUpLeg  9.67699 -2.9135 -2.75824
RightLeg  -5.41699 -19.3503 2.18266
RightFoot  -0.839435 -0.415505 4.45621
RightToes  -3.10096e-008 1.75238e-005 3.56266e-009
Spine  -8.62215 1.73307 0.152338
Spine1  13.88 2.67177 -2.95373
HEad  -15.5431 1.40151 -5.02409
LeftShoulder1  4.27964 -8.05421 -31.1178
LeftArm  -48.5967 3.09821 -37.5148
LeftForeArm  97.6073 3.17202 12.348
LeftHand  -0.849878 -8.70559 7.48065
RightShoulder  4.28553 8.60867 29.4761
RightArm  -30.3175 -6.5064 43.5396
RightForeArm  48.59 4.55335 6.52118
RightHand  -0.402008 6.79469 -4.19144
LeftUpLeg  7.53841 1.42408 1.77959
LeftLeg  -3.64185 12.5431 -1.01322
LeftFoot  -1.89004 0.0997 -1.27636
LeftToes  4.7633e-008 1.48299e-008 1.30754e-009
518
root  -5.17852 40.8548 0.226365 16.8693 -89.676 -17.0583
RightUpLeg  9.61461 -2.86639 -2.78003
RightLeg  -5.44699 -19.9985 2.13261
RightFoot  -1.08448 -0.406163 4.43991
RightToes  -3.10096e-008 1.75238e-005 3.56266e-009
Spine  -8.75203 1.29987 -0.582791
Spine1  14.9902 2.38407 -3.08219
HEad  -15.4851 1.8199 -4.23273
LeftShoulder1  4.12371 -7.95092 -29.9736
LeftArm  -49.2583 11.4927 -42.0411
LeftForeArm  122.082 -0.904832 15.4872
LeftHand  -0.339843 -12.2964 2.56346
RightShoulder  4.45479 8.75763 30.4061
RightArm  -35.9845 -11.7431 46.9029
RightForeArm  53.6823 3.69669 1.06348
RightHand  -0.5208 5.61434 -5.79299
LeftUpLeg  7.39538 1.40425 1.7242
LeftLeg  -3.80445 11.8779 -1.13697
LeftFoot  -1.82962 0.0950109 -1.19977
LeftToes  4.7633e-008 1.48299e-008 1.30754e-009
519
root  -5.21093 40.864 0.190057 0.692044 -89.3742 -0.447049
RightUpLeg  9.06918 -2.81666 -2.67206
RightLeg  -5.1376 -20.399 2.08811
RightFoot  -1.06571 -0.400973 4.39275
RightToes  -3.10096e-008 1.75238e-005 3.56266e-009
Spine  -9.75168 0.606287 -3.21323
Spine1  17.2764 1.01081 0.0956001
HEad  -19.0639 3.83459 -6.28873
LeftShoulder1  3.62651 -6.71205 -29.5088
LeftArm  -42.8524 23.8339 -46.2064
LeftForeArm  119.553 -4.34403 7.76527
LeftHand  -0.342246 -12.0931 3.00032
RightShoulder  4.06722 7.80892 30.0439
RightArm  -34.7261 -18.6329 48.5641
RightForeArm  38.769 9.1992 3.42706
RightHand  -0.48452 5.56868 -5.45391
LeftUpLeg  6.96207 1.29335 1.74933
LeftLeg  -3.88918 11.7015 -1.09872
LeftFoot  -1.72525 0.0913302 -1.13871
LeftToes  4.7633e-008 1.48299e-008 1.30754e-009
520
root  -5.24588 40.8736 0.176291 20.8242 -89.2943 -19.9077
RightUpLeg  8.38729 -2.58555 -2.38371
RightLeg  -5.16069 -20.6466 2.1718
RightFoot  -0.878471 -0.40906 4.51027
RightToes  -3.10096e-008 1.75238e-005 3.56266e-009
Spine  -9.20862 0.386255 -4.70892
Spine1  16.0977 0.321115 1.93301
HEad  -21.2033 4.12461 -7.35882
LeftShoulder1  3.09933 -5.072 -30.0959
LeftArm  -38.6658 35.5888 -46.9544
LeftForeArm  99.1418 -10.9523 0.18233
LeftHand  -0.959116 -6.72372 9.27266
RightShoulder  3.75701 6.75457 30.7092
RightArm  -24.0606 -28.0925 48.17
RightForeArm  24.3349 19.0618 5.26512
RightHand  -0.263473 6.39992 -2.92741
LeftUpLeg  6.17498 1.27812 1.95839
LeftLeg  -3.69954 11.7572 -1.00189
LeftFoot  -1.76726 0.0974721 -1.23017
LeftToes  4.7633e-008 1.48299e-008 1.30754e-009
